<svg width="179" height="174" viewBox="0 0 179 174" fill="none" xmlns="http://www.w3.org/2000/svg">
<path d="M61.8706 100.321C61.8706 110.262 69.9295 118.321 79.8706 118.321L112.562 118.321C115.324 118.321 117.562 116.082 117.562 113.321L117.562 89.2317C117.562 83.7088 113.085 79.2317 107.562 79.2317L66.8706 79.2317C64.1092 79.2317 61.8706 81.4702 61.8706 84.2317L61.8706 100.321Z" fill="#FFF1DA"/>
<path d="M108.31 104.61C106.271 104.512 104.278 104.76 102.456 105.338C97.7097 106.781 94.9078 109.797 96.1981 112.074C97.4885 114.352 102.382 115.028 107.129 113.585C108.975 113.048 110.621 112.191 111.968 111.065C112.593 110.516 112.719 109.673 112.29 108.917L110.614 105.959C110.187 105.202 109.283 104.673 108.31 104.61Z" fill="#D5D6DB"/>
<path d="M97.1587 67.0472C95.68 66.9763 94.2349 67.1564 92.9134 67.5759C89.4726 68.6217 87.4398 70.8084 88.3746 72.4584C89.3095 74.1084 92.8594 74.5984 96.2998 73.5528C97.6383 73.1632 98.8323 72.5409 99.809 71.7248C100.262 71.3263 100.353 70.7159 100.042 70.168L98.828 68.0257C98.5192 67.4769 97.8643 67.093 97.1587 67.0472Z" fill="#D5D6DB"/>
<path d="M77.9617 63.8842C77.6344 63.7738 77.2832 63.7647 76.9768 63.8582L68.8945 66.315C68.2185 66.5194 67.9376 67.1589 68.2677 67.7439C68.3432 67.8779 68.4476 68.0019 68.5751 68.1089L88.0766 84.5443L115.027 76.352L77.9617 63.8842Z" fill="#029BC5"/>
<path d="M162.329 82.5458L88.9962 104.357L45.7697 108.707L23.7945 107.175L21.4502 103.074L143.662 67.9771C147.304 66.923 151.344 66.7105 155.372 67.3615C157.136 67.6547 158.874 68.1241 160.547 68.758C162.031 69.3101 163.434 70.0238 164.716 70.8779C166.147 71.8403 168.89 72.5724 169.756 74.0121C169.759 74.0108 171.752 80.1427 162.329 82.5458V82.5458Z" fill="#E1E6E9"/>
<path d="M90.0559 99.3889L57.8463 134.876C57.4427 135.386 57.663 136.119 58.3377 136.513C58.7517 136.755 59.2628 136.822 59.6956 136.691L67.7712 134.256C69.3244 133.787 70.7058 133.049 71.8298 132.088L133.886 85.1864L90.0559 99.3889Z" fill="#029BC5"/>
<path d="M10.8283 78.8636C10.3073 78.5833 9.6823 78.5129 9.1506 78.6742L2.47468 80.7001C1.56504 80.9757 1.18852 81.8365 1.6334 82.6229C1.71817 82.7724 1.8293 82.9128 1.96329 83.0387L20.2392 100.251L39.9012 94.4887L10.8283 78.8636Z" fill="#029BC5"/>
<path d="M26.4037 104.042L16.215 113.642C16.0657 113.779 16.096 114.004 16.2826 114.143C16.4173 114.244 16.603 114.277 16.7554 114.226L22.9937 112.349C23.0422 112.334 23.0862 112.312 23.1228 112.283L37.9672 100.567L26.4037 104.042Z" fill="#029BC5"/>
<path d="M159.347 68.9882C157.624 68.3337 155.833 67.8513 154.016 67.5514C152.21 69.2496 151.037 71.3634 150.613 73.6818C150.576 74.1592 151.024 74.6169 151.612 74.7042C151.795 74.7311 151.978 74.7197 152.143 74.6707L163.64 71.1809C162.32 70.2962 160.874 69.558 159.347 68.9882Z" fill="#029BC5"/>
<path d="M134.331 74.4728L141.837 72.2276L148.569 84.0164L141.064 86.2617L134.331 74.4728Z" fill="#D5D6DB"/>
<path d="M129.581 77.3496C128.677 77.6216 128.301 78.4728 128.744 79.2508L129.46 80.5112C129.932 81.2794 131.036 81.6603 131.926 81.362C132.772 81.0778 133.126 80.2758 132.734 79.5264L132.018 78.266C131.576 77.4886 130.486 77.0783 129.581 77.3496V77.3496Z" fill="#3A556A"/>
<path d="M122.837 79.3071C121.932 79.5792 121.557 80.4304 121.999 81.2084L122.715 82.4688C123.188 83.2369 124.292 83.6179 125.181 83.3196C126.028 83.0354 126.381 82.2333 125.99 81.4839L125.274 80.2235C124.831 79.4463 123.741 79.036 122.837 79.3071V79.3071Z" fill="#3A556A"/>
<path d="M116.09 81.2652C115.186 81.5381 114.812 82.3885 115.254 83.1658L115.97 84.4262C116.442 85.1943 117.546 85.5753 118.436 85.277C119.282 84.9928 119.636 84.1908 119.245 83.4414L118.528 82.181C118.086 81.4031 116.994 80.9931 116.09 81.2652V81.2652Z" fill="#3A556A"/>
<path d="M109.344 83.2229C108.44 83.4958 108.066 84.3462 108.508 85.1235L109.224 86.3839C109.697 87.1521 110.801 87.533 111.69 87.2347C112.537 86.9505 112.89 86.1485 112.499 85.3991L111.783 84.1387C111.34 83.3608 110.248 82.9508 109.344 83.2229V83.2229Z" fill="#3A556A"/>
<path d="M102.6 85.1807C101.696 85.4537 101.322 86.3044 101.764 87.0821L102.481 88.3431C102.923 89.1204 104.014 89.5302 104.918 89.2583C105.822 88.9865 106.197 88.1359 105.755 87.3585L105.039 86.0976C104.598 85.3199 103.507 84.9092 102.602 85.1801C102.602 85.1804 102.601 85.1805 102.6 85.1807Z" fill="#3A556A"/>
<path d="M95.8552 87.1383C94.9512 87.4113 94.5769 88.262 95.019 89.0397L95.7357 90.3007C96.1775 91.078 97.2687 91.4878 98.1729 91.2159C99.0772 90.944 99.452 90.0935 99.0101 89.3161L98.2934 88.0551C97.8527 87.2775 96.7619 86.8668 95.8571 87.1377C95.8564 87.1379 95.8556 87.1382 95.8552 87.1383Z" fill="#3A556A"/>
<path d="M89.1101 89.0958C88.2061 89.3688 87.8318 90.2196 88.2738 90.9972L88.9906 92.2582C89.4335 93.0351 90.5253 93.4436 91.4285 93.1708C92.3303 92.8985 92.7043 92.0498 92.2646 91.2738L91.5478 90.0128C91.1062 89.235 90.015 88.8245 89.1101 89.0958Z" fill="#3A556A"/>
<path d="M82.365 91.0532C81.461 91.3262 81.0867 92.177 81.5287 92.9547L82.2454 94.2157C82.6884 94.9927 83.7802 95.4011 84.6834 95.1283C85.5851 94.856 85.9592 94.0072 85.5194 93.2312L84.8027 91.9702C84.3611 91.1924 83.2699 90.7819 82.365 91.0532Z" fill="#3A556A"/>
<path d="M75.6205 93.0107C74.7164 93.2837 74.3422 94.1344 74.7842 94.9121L75.5009 96.173C75.9439 96.95 77.0357 97.3584 77.9389 97.0857C78.8406 96.8134 79.2147 95.9647 78.7749 95.1886L78.0582 93.9277C77.6162 93.15 76.525 92.7395 75.6205 93.0107Z" fill="#3A556A"/>
<path d="M68.8733 94.9688C67.9691 95.2407 67.5943 96.0912 68.0361 96.8686L68.037 96.8702L68.7537 98.1312C69.1967 98.9082 70.2885 99.3166 71.1917 99.0439C72.0934 98.7716 72.4675 97.9228 72.0277 97.1467L71.311 95.8857C70.8694 95.108 69.7782 94.6974 68.8733 94.9688Z" fill="#3A556A"/>
<path d="M62.1303 96.926C61.2261 97.1977 60.8512 98.0481 61.2929 98.8255L61.2939 98.8272L62.0105 100.088C62.4534 100.865 63.5451 101.274 64.4484 101.001C65.3501 100.729 65.7243 99.8805 65.2846 99.1044L64.568 97.8434C64.126 97.0657 63.0349 96.655 62.1303 96.926Z" fill="#3A556A"/>
</svg>
